<?xml version="1.0" encoding="UTF-8"?>
<svg width="9px" height="17px" viewBox="0 0 9 17" version="1.1" xmlns="http://www.w3.org/2000/svg" xmlns:xlink="http://www.w3.org/1999/xlink">
    <!-- Generator: Sketch 52.2 (67145) - http://www.bohemiancoding.com/sketch -->
    <title>Shape</title>
    <desc>Created with Sketch.</desc>
    <g id="Community" stroke="none" stroke-width="1" fill="none" fill-rule="evenodd">
        <g id="Community---Event" transform="translate(-242.000000, -781.000000)" fill="#F52536" fill-rule="nonzero">
            <g id="Comments-Copy-2" transform="translate(0.000000, 133.000000)">
                <g id="Events">
                    <g id="Group-11" transform="translate(120.000000, 610.000000)">
                        <path d="M130.365475,38.0033454 L128.280462,38 C125.938022,38 124.424235,39.5530959 124.424235,41.9569237 L124.424235,43.7813304 L122.327848,43.7813304 C122.146695,43.7813304 122,43.9281929 122,44.1093456 L122,46.7527031 C122,46.9338558 122.146862,47.080551 122.327848,47.080551 L124.424235,47.080551 L124.424235,53.7505835 C124.424235,53.9317362 124.57093,54.0784314 124.752083,54.0784314 L127.487271,54.0784314 C127.668424,54.0784314 127.815119,53.9315689 127.815119,53.7505835 L127.815119,47.080551 L130.266284,47.080551 C130.447437,47.080551 130.594132,46.9338558 130.594132,46.7527031 L130.595135,44.1093456 C130.595135,44.0223655 130.560511,43.9390654 130.499123,43.8775103 C130.437735,43.8159552 130.3541,43.7813304 130.26712,43.7813304 L127.815119,43.7813304 L127.815119,42.234758 C127.815119,41.4914131 127.992257,41.1140534 128.960579,41.1140534 L130.36514,41.1135516 C130.546125,41.1135516 130.692821,40.9666891 130.692821,40.7857037 L130.692821,38.3311933 C130.692821,38.1503751 130.546293,38.0036799 130.365475,38.0033454 Z" id="Shape"></path>
                    </g>
                </g>
            </g>
        </g>
    </g>
</svg>