<?xml version="1.0" encoding="UTF-8"?>
<svg width="18px" height="16px" viewBox="0 0 18 16" version="1.1" xmlns="http://www.w3.org/2000/svg" xmlns:xlink="http://www.w3.org/1999/xlink">
    <!-- Generator: Sketch 52.2 (67145) - http://www.bohemiancoding.com/sketch -->
    <title>Shape</title>
    <desc>Created with Sketch.</desc>
    <g id="Community" stroke="none" stroke-width="1" fill="none" fill-rule="evenodd">
        <g id="Community---Event" transform="translate(-120.000000, -782.000000)" fill="#F52536" fill-rule="nonzero">
            <g id="Comments-Copy-2" transform="translate(0.000000, 133.000000)">
                <g id="Events">
                    <g id="Group-11" transform="translate(120.000000, 610.000000)">
                        <path d="M17.5886274,40.8072149 C16.9412672,41.1138917 16.246659,41.3218764 15.5168447,41.4147306 C16.2620347,40.937647 16.8324589,40.1809255 17.1028127,39.2820038 C16.4038073,39.7238139 15.6322343,40.0446247 14.8101083,40.2185342 C14.1517695,39.4676814 13.215346,39 12.1766956,39 C10.1840618,39 8.56840583,40.7273271 8.56840583,42.8565204 C8.56840583,43.1584961 8.60027808,43.4534356 8.66183838,43.7354701 C5.66354729,43.5744656 3.00487246,42.0386847 1.22545801,39.7050095 C0.914408944,40.2737489 0.737459016,40.9364487 0.737459016,41.6438548 C0.737459016,42.9822514 1.37493284,44.1631769 2.3421365,44.8540832 C1.75081852,44.8329437 1.19467786,44.6590341 0.707799713,44.3699633 L0.707799713,44.4181418 C0.707799713,46.2864708 1.95196722,47.8457571 3.60167971,48.2006431 C3.29942497,48.2875978 2.98070243,48.3357763 2.65097261,48.3357763 C2.41798039,48.3357763 2.19266166,48.3111033 1.97174009,48.2640924 C2.43114314,49.797538 3.76325393,50.9126483 5.34154843,50.9432208 C4.10726735,51.9772757 2.55095868,52.5918277 0.860579609,52.5918277 C0.569332155,52.5918277 0.282453126,52.5730233 0,52.5389481 C1.59697526,53.6352848 3.49290019,54.2745098 5.53059774,54.2745098 C12.1679588,54.2745098 15.7960502,48.3968905 15.7960502,43.2995287 L15.7839508,42.800138 C16.4928427,42.2595744 17.1061177,41.5804055 17.5886274,40.8072149 Z" id="Shape"></path>
                    </g>
                </g>
            </g>
        </g>
    </g>
</svg>